<mxfile host="www.draw.io" modified="2020-03-30T06:55:50.365Z" agent="Mozilla/5.0 (Macintosh; Intel Mac OS X 10_13_6) AppleWebKit/537.36 (KHTML, like Gecko) Chrome/80.0.3987.149 Safari/537.36" etag="Bm-Xtzt3ns0pugx1wQrb" version="12.9.3" type="github">
  <diagram id="TnfnPZXa5OxdsRngxzIk" name="Page-1">
    <mxGraphModel dx="1719" dy="498" grid="1" gridSize="10" guides="1" tooltips="1" connect="1" arrows="1" fold="1" page="1" pageScale="1" pageWidth="827" pageHeight="1169" math="0" shadow="0">
      <root>
        <mxCell id="0" />
        <mxCell id="1" parent="0" />
        <mxCell id="Oe_TH4K38rMRzdL1Emh8-19" value="门店区域菜谱&amp;nbsp;&amp;nbsp;StoreAreaItemPrgm&lt;br&gt;（虚实体，没有表）" style="rounded=1;whiteSpace=wrap;html=1;" vertex="1" parent="1">
          <mxGeometry x="310" y="100" width="190" height="60" as="geometry" />
        </mxCell>
        <mxCell id="Oe_TH4K38rMRzdL1Emh8-20" value="菜品 Pubitem&lt;br&gt;CBOH_PUBITEM_3CH" style="rounded=1;whiteSpace=wrap;html=1;" vertex="1" parent="1">
          <mxGeometry x="57" y="40" width="156" height="60" as="geometry" />
        </mxCell>
        <mxCell id="Oe_TH4K38rMRzdL1Emh8-21" value="门店区域菜谱明细之套餐&amp;nbsp;StoreAreaPubitem&lt;br&gt;CBOH_STOREAREAPUBITEM_3CH" style="rounded=1;whiteSpace=wrap;html=1;" vertex="1" parent="1">
          <mxGeometry x="560" y="160" width="260" height="55" as="geometry" />
        </mxCell>
        <mxCell id="Oe_TH4K38rMRzdL1Emh8-22" value="门店区域菜谱明细之菜品&amp;nbsp;StoreAreaPubitem&lt;br&gt;CBOH_STOREAREAPUBITEM_3CH" style="rounded=1;whiteSpace=wrap;html=1;" vertex="1" parent="1">
          <mxGeometry x="-10" y="160" width="250" height="60" as="geometry" />
        </mxCell>
        <mxCell id="Oe_TH4K38rMRzdL1Emh8-23" value="" style="endArrow=none;html=1;" edge="1" parent="1" source="Oe_TH4K38rMRzdL1Emh8-25">
          <mxGeometry width="50" height="50" relative="1" as="geometry">
            <mxPoint x="813" y="260" as="sourcePoint" />
            <mxPoint x="699" y="160" as="targetPoint" />
          </mxGeometry>
        </mxCell>
        <mxCell id="Oe_TH4K38rMRzdL1Emh8-24" value="" style="endArrow=none;html=1;" edge="1" parent="1">
          <mxGeometry width="50" height="50" relative="1" as="geometry">
            <mxPoint x="135" y="100" as="sourcePoint" />
            <mxPoint x="135" y="160" as="targetPoint" />
          </mxGeometry>
        </mxCell>
        <mxCell id="Oe_TH4K38rMRzdL1Emh8-25" value="套餐 PubPack&lt;br&gt;CBOH_PUBPACK_3CH" style="rounded=1;whiteSpace=wrap;html=1;" vertex="1" parent="1">
          <mxGeometry x="600" y="40" width="197.5" height="60" as="geometry" />
        </mxCell>
        <mxCell id="Oe_TH4K38rMRzdL1Emh8-26" value="1" style="endArrow=open;html=1;endSize=12;startArrow=diamondThin;startSize=14;startFill=1;edgeStyle=orthogonalEdgeStyle;align=left;verticalAlign=bottom;exitX=0;exitY=0.5;exitDx=0;exitDy=0;entryX=1;entryY=0.5;entryDx=0;entryDy=0;" edge="1" parent="1" source="Oe_TH4K38rMRzdL1Emh8-19" target="Oe_TH4K38rMRzdL1Emh8-22">
          <mxGeometry x="-0.8571" y="-10" relative="1" as="geometry">
            <mxPoint x="330" y="90" as="sourcePoint" />
            <mxPoint x="280" y="200" as="targetPoint" />
            <Array as="points">
              <mxPoint x="280" y="130" />
              <mxPoint x="280" y="190" />
            </Array>
            <mxPoint as="offset" />
          </mxGeometry>
        </mxCell>
        <mxCell id="Oe_TH4K38rMRzdL1Emh8-27" value="1" style="endArrow=open;html=1;endSize=12;startArrow=diamondThin;startSize=14;startFill=1;edgeStyle=orthogonalEdgeStyle;align=left;verticalAlign=bottom;exitX=1;exitY=0.5;exitDx=0;exitDy=0;entryX=0;entryY=0.5;entryDx=0;entryDy=0;" edge="1" parent="1" source="Oe_TH4K38rMRzdL1Emh8-19" target="Oe_TH4K38rMRzdL1Emh8-21">
          <mxGeometry x="-1" y="3" relative="1" as="geometry">
            <mxPoint x="330" y="90" as="sourcePoint" />
            <mxPoint x="570" y="90" as="targetPoint" />
          </mxGeometry>
        </mxCell>
        <mxCell id="Oe_TH4K38rMRzdL1Emh8-28" value="门店区域 StoreArear&lt;br&gt;CBOH_STOREAREAR_3CH" style="rounded=1;whiteSpace=wrap;html=1;" vertex="1" parent="1">
          <mxGeometry x="320" y="270" width="160" height="60" as="geometry" />
        </mxCell>
        <mxCell id="Oe_TH4K38rMRzdL1Emh8-29" value="" style="endArrow=classic;html=1;exitX=0.5;exitY=1;exitDx=0;exitDy=0;entryX=0;entryY=0.5;entryDx=0;entryDy=0;" edge="1" parent="1" source="Oe_TH4K38rMRzdL1Emh8-22" target="Oe_TH4K38rMRzdL1Emh8-28">
          <mxGeometry width="50" height="50" relative="1" as="geometry">
            <mxPoint x="390" y="240" as="sourcePoint" />
            <mxPoint x="440" y="190" as="targetPoint" />
          </mxGeometry>
        </mxCell>
        <mxCell id="Oe_TH4K38rMRzdL1Emh8-30" value="" style="endArrow=classic;html=1;entryX=1;entryY=0.5;entryDx=0;entryDy=0;exitX=0.579;exitY=0.989;exitDx=0;exitDy=0;exitPerimeter=0;" edge="1" parent="1" source="Oe_TH4K38rMRzdL1Emh8-21" target="Oe_TH4K38rMRzdL1Emh8-28">
          <mxGeometry width="50" height="50" relative="1" as="geometry">
            <mxPoint x="390" y="240" as="sourcePoint" />
            <mxPoint x="440" y="190" as="targetPoint" />
          </mxGeometry>
        </mxCell>
        <mxCell id="Oe_TH4K38rMRzdL1Emh8-31" value="门店 Store&lt;br&gt;CBOH_STORE_3CH" style="rounded=1;whiteSpace=wrap;html=1;" vertex="1" parent="1">
          <mxGeometry x="326" y="390" width="148" height="60" as="geometry" />
        </mxCell>
        <mxCell id="Oe_TH4K38rMRzdL1Emh8-34" value="" style="endArrow=classic;html=1;exitX=0.5;exitY=1;exitDx=0;exitDy=0;entryX=0.5;entryY=0;entryDx=0;entryDy=0;" edge="1" parent="1" source="Oe_TH4K38rMRzdL1Emh8-28" target="Oe_TH4K38rMRzdL1Emh8-31">
          <mxGeometry width="50" height="50" relative="1" as="geometry">
            <mxPoint x="345" y="170" as="sourcePoint" />
            <mxPoint x="394" y="240" as="targetPoint" />
          </mxGeometry>
        </mxCell>
      </root>
    </mxGraphModel>
  </diagram>
</mxfile>
